<?xml version="1.0" encoding="UTF-8"?>
<svg width="800" height="400" xmlns="http://www.w3.org/2000/svg">
    <!-- Background -->
    <rect width="800" height="400" fill="#f5f5f5"/>
    
    <!-- Digital Transformation Illustration -->
    <g>
        <!-- Factory Building -->
        <rect x="150" y="150" width="200" height="150" fill="#e9f0fa" stroke="#305bb9" stroke-width="2"/>
        <rect x="170" y="180" width="40" height="60" fill="#ffffff" stroke="#305bb9" stroke-width="1"/>
        <rect x="240" y="180" width="40" height="60" fill="#ffffff" stroke="#305bb9" stroke-width="1"/>
        <rect x="290" y="180" width="40" height="60" fill="#ffffff" stroke="#305bb9" stroke-width="1"/>
        <polygon points="150,150 250,80 350,150" fill="#305bb9" opacity="0.7"/>
        
        <!-- Smokestack -->
        <rect x="300" y="100" width="20" height="50" fill="#e9f0fa" stroke="#305bb9" stroke-width="1"/>
        
        <!-- Digital Elements -->
        <rect x="450" y="150" width="200" height="150" fill="#4a80ff" opacity="0.7" stroke="#305bb9" stroke-width="2"/>
        <rect x="470" y="180" width="40" height="60" fill="#ffffff" stroke="#305bb9" stroke-width="1"/>
        <rect x="540" y="180" width="40" height="60" fill="#ffffff" stroke="#305bb9" stroke-width="1"/>
        <rect x="590" y="180" width="40" height="60" fill="#ffffff" stroke="#305bb9" stroke-width="1"/>
        <polygon points="450,150 550,80 650,150" fill="#305bb9"/>
        
        <!-- Circuit Board Lines -->
        <path d="M350,200 L450,200" stroke="#305bb9" stroke-width="3" stroke-dasharray="10,5"/>
        <path d="M380,180 L420,180" stroke="#305bb9" stroke-width="2" stroke-dasharray="5,3"/>
        <path d="M380,220 L420,220" stroke="#305bb9" stroke-width="2" stroke-dasharray="5,3"/>
        
        <!-- Data Nodes -->
        <circle cx="380" cy="180" r="5" fill="#4a80ff"/>
        <circle cx="420" cy="180" r="5" fill="#4a80ff"/>
        <circle cx="380" cy="220" r="5" fill="#4a80ff"/>
        <circle cx="420" cy="220" r="5" fill="#4a80ff"/>
        <circle cx="400" cy="200" r="10" fill="#4a80ff"/>
        
        <!-- Digital Icons -->
        <g transform="translate(500, 120)">
            <circle cx="0" cy="0" r="20" fill="#ffffff" stroke="#305bb9" stroke-width="2"/>
            <text x="-10" y="7" font-family="Arial" font-size="20" fill="#305bb9">📊</text>
        </g>
        
        <g transform="translate(550, 120)">
            <circle cx="0" cy="0" r="20" fill="#ffffff" stroke="#305bb9" stroke-width="2"/>
            <text x="-10" y="7" font-family="Arial" font-size="20" fill="#305bb9">💻</text>
        </g>
        
        <g transform="translate(600, 120)">
            <circle cx="0" cy="0" r="20" fill="#ffffff" stroke="#305bb9" stroke-width="2"/>
            <text x="-10" y="7" font-family="Arial" font-size="20" fill="#305bb9">📱</text>
        </g>
        
        <!-- IoT Sensors -->
        <g transform="translate(190, 260)">
            <circle cx="0" cy="0" r="8" fill="#4a80ff"/>
            <circle cx="0" cy="0" r="15" fill="none" stroke="#4a80ff" stroke-width="1" opacity="0.6"/>
            <circle cx="0" cy="0" r="25" fill="none" stroke="#4a80ff" stroke-width="1" opacity="0.3"/>
        </g>
        
        <g transform="translate(260, 260)">
            <circle cx="0" cy="0" r="8" fill="#4a80ff"/>
            <circle cx="0" cy="0" r="15" fill="none" stroke="#4a80ff" stroke-width="1" opacity="0.6"/>
            <circle cx="0" cy="0" r="25" fill="none" stroke="#4a80ff" stroke-width="1" opacity="0.3"/>
        </g>
        
        <g transform="translate(310, 260)">
            <circle cx="0" cy="0" r="8" fill="#4a80ff"/>
            <circle cx="0" cy="0" r="15" fill="none" stroke="#4a80ff" stroke-width="1" opacity="0.6"/>
            <circle cx="0" cy="0" r="25" fill="none" stroke="#4a80ff" stroke-width="1" opacity="0.3"/>
        </g>
        
        <!-- Data Flows -->
        <path d="M190,235 C190,150 400,90 500,120" stroke="#305bb9" stroke-width="1" opacity="0.5" fill="none"/>
        <path d="M260,235 C260,150 450,90 550,120" stroke="#305bb9" stroke-width="1" opacity="0.5" fill="none"/>
        <path d="M310,235 C310,150 500,90 600,120" stroke="#305bb9" stroke-width="1" opacity="0.5" fill="none"/>
    </g>
</svg>
