<?xml version="1.0" encoding="UTF-8"?>
<svg width="800" height="400" xmlns="http://www.w3.org/2000/svg">
    <!-- Background -->
    <rect width="800" height="400" fill="#f5f5f5"/>
    
    <!-- Payment System Illustration -->
    <g>
        <!-- Credit Card -->
        <rect x="250" y="150" width="300" height="180" rx="15" fill="#4a80ff"/>
        <rect x="250" y="190" width="300" height="40" fill="#305bb9"/>
        <rect x="280" y="250" width="70" height="50" rx="5" fill="#e9f0fa"/>
        <rect x="370" y="270" width="150" height="10" rx="5" fill="#e9f0fa"/>
        <rect x="370" y="250" width="100" height="10" rx="5" fill="#e9f0fa"/>
        
        <!-- Payment Icons -->
        <g transform="translate(300, 100)">
            <circle cx="0" cy="0" r="30" fill="#ffffff"/>
            <text x="-18" y="10" font-family="Arial" font-size="30" fill="#305bb9">💳</text>
        </g>
        
        <g transform="translate(400, 100)">
            <circle cx="0" cy="0" r="30" fill="#ffffff"/>
            <text x="-18" y="10" font-family="Arial" font-size="30" fill="#305bb9">💸</text>
        </g>
        
        <g transform="translate(500, 100)">
            <circle cx="0" cy="0" r="30" fill="#ffffff"/>
            <text x="-18" y="10" font-family="Arial" font-size="30" fill="#305bb9">🏦</text>
        </g>
        
        <!-- Globe with Connections -->
        <circle cx="620" cy="170" r="60" fill="#e9f0fa" stroke="#305bb9" stroke-width="2"/>
        <ellipse cx="620" cy="170" rx="60" ry="20" fill="none" stroke="#305bb9" stroke-width="1" opacity="0.5"/>
        <path d="M560,170 L680,170" stroke="#305bb9" stroke-width="1" opacity="0.5"/>
        <path d="M620,110 L620,230" stroke="#305bb9" stroke-width="1" opacity="0.5"/>
        
        <g transform="translate(180, 170)">
            <circle cx="0" cy="0" r="40" fill="#e9f0fa" stroke="#305bb9" stroke-width="2"/>
            <path d="M-30,-10 L30,-10 M-20,0 L20,0 M-30,10 L30,10" stroke="#305bb9" stroke-width="1"/>
            <text x="-20" y="5" font-family="Arial" font-size="16" fill="#305bb9">$€¥£</text>
        </g>
        
        <!-- Connection Lines -->
        <path d="M220,170 L250,170" stroke="#305bb9" stroke-width="2" stroke-dasharray="5,3"/>
        <path d="M550,170 L560,170" stroke="#305bb9" stroke-width="2" stroke-dasharray="5,3"/>
        
        <!-- Mobile Payment -->
        <g transform="translate(400, 350)">
            <rect x="-25" y="-50" width="50" height="80" rx="5" fill="#ffffff" stroke="#305bb9" stroke-width="2"/>
            <rect x="-20" y="-40" width="40" height="60" rx="2" fill="#e9f0fa"/>
            <circle cx="0" cy="45" r="5" fill="#305bb9"/>
            <path d="M-15,-25 L15,-25 M-15,-15 L15,-15 M-15,-5 L15,-5" stroke="#305bb9" stroke-width="2"/>
        </g>
        
        <path d="M400,280 L400,300" stroke="#305bb9" stroke-width="2" stroke-dasharray="5,3"/>
    </g>
</svg>
